<svg width="25" height="25" viewBox="0 0 25 25" fill="none" xmlns="http://www.w3.org/2000/svg">
<circle cx="12.5" cy="12.5" r="12.5" fill="#004294"/>
<path d="M8.595 18V16.521L13.321 12.033C13.7177 11.659 14.0123 11.3303 14.205 11.047C14.3977 10.7637 14.5223 10.503 14.579 10.265C14.647 10.0157 14.681 9.78333 14.681 9.568C14.681 9.024 14.494 8.60467 14.12 8.31C13.746 8.004 13.1963 7.851 12.471 7.851C11.893 7.851 11.366 7.953 10.89 8.157C10.4253 8.361 10.023 8.67267 9.683 9.092L8.136 7.902C8.60067 7.27867 9.224 6.797 10.006 6.457C10.7993 6.10567 11.6833 5.93 12.658 5.93C13.5193 5.93 14.2673 6.07167 14.902 6.355C15.548 6.627 16.041 7.018 16.381 7.528C16.7323 8.038 16.908 8.64433 16.908 9.347C16.908 9.73233 16.857 10.1177 16.755 10.503C16.653 10.877 16.4603 11.2737 16.177 11.693C15.8937 12.1123 15.48 12.5827 14.936 13.104L10.873 16.963L10.414 16.13H17.367V18H8.595Z" fill="white"/>
</svg>
