<svg width="25" height="25" viewBox="0 0 25 25" fill="none" xmlns="http://www.w3.org/2000/svg">
<circle cx="12.5" cy="12.5" r="12.5" fill="#004294"/>
<path d="M12.488 18.17C11.6493 18.17 10.8277 18.051 10.023 17.813C9.22967 17.5637 8.561 17.2237 8.017 16.793L8.969 15.076C9.39967 15.4273 9.921 15.7107 10.533 15.926C11.145 16.1413 11.7853 16.249 12.454 16.249C13.2473 16.249 13.865 16.0903 14.307 15.773C14.749 15.4443 14.97 15.0023 14.97 14.447C14.97 13.903 14.766 13.4723 14.358 13.155C13.95 12.8377 13.2927 12.679 12.386 12.679H11.298V11.166L14.698 7.12L14.987 7.953H8.595V6.1H16.704V7.579L13.304 11.625L12.148 10.945H12.811C14.273 10.945 15.3667 11.2737 16.092 11.931C16.8287 12.577 17.197 13.41 17.197 14.43C17.197 15.0987 17.027 15.7163 16.687 16.283C16.347 16.8497 15.8257 17.3087 15.123 17.66C14.4317 18 13.5533 18.17 12.488 18.17Z" fill="white"/>
</svg>
